<svg width="36" height="36" viewBox="0 0 36 36" fill="none" xmlns="http://www.w3.org/2000/svg">
<path fill-rule="evenodd" clip-rule="evenodd" d="M8.93536 19.0632C8.34057 14.7544 11.1101 10.5016 15.4223 9.12124C17.4669 8.46839 20.2735 8.74819 22.3553 9.8114C24.3627 10.8373 26.2772 13.2808 26.8906 15.5751C27.2809 16.9741 27.2251 19.3244 26.779 20.7606C25.4779 24.9948 20.9799 27.8114 16.7048 27.0839C12.4855 26.3565 9.53015 23.3161 8.93536 19.0632ZM19.0468 17.4963C19.7159 15.258 20.2735 13.3927 20.2735 13.3368C20.2735 13.1876 18.6379 13.2249 18.5449 13.3741C18.3962 13.6352 15.8126 22.1409 15.8126 22.3648C15.8126 22.514 16.0914 22.57 16.6862 22.5326C17.4297 22.4767 17.5784 22.4021 17.6899 22.0104C17.7576 21.7725 18.2725 20.0646 18.8694 18.0846L19.0468 17.4963ZM15.6267 16.5451V15.6497C15.6267 15.1461 15.571 14.7358 15.4966 14.7544C15.4037 14.7544 14.4372 15.2767 13.3033 15.9109C11.8381 16.753 11.4229 16.9916 11.2848 17.3407C11.2301 17.4788 11.2188 17.6341 11.203 17.8508L11.1472 18.6155L13.1918 19.7534C14.3071 20.3689 15.3108 20.8912 15.4223 20.8912C15.5338 20.8912 15.6267 20.5368 15.6267 20.0518C15.6267 19.2311 15.6082 19.2124 14.5115 18.6155C13.8981 18.2798 13.3963 17.944 13.3963 17.8694C13.3963 17.7948 13.8981 17.4777 14.5115 17.142L15.6267 16.5451ZM25.1062 17.7762C25.1062 17.2166 24.9947 17.1233 23.4891 16.2653C23.2174 16.115 22.9373 15.9598 22.6698 15.8114C22.0406 15.4626 21.4804 15.152 21.2587 15.0342L20.6453 14.7171V16.5824L22.9129 17.8508L21.8163 18.485C21.2215 18.8207 20.6825 19.1751 20.6081 19.287C20.4037 19.5855 20.4222 20.6674 20.6453 20.7979C20.8497 20.9285 24.7345 18.914 24.9575 18.5782C25.0319 18.4663 25.1062 18.1119 25.1062 17.7762Z" fill="#1F2937"/>
<path fill-rule="evenodd" clip-rule="evenodd" d="M1.44473 5.05492C-0.302467 3.2456 -0.451164 2.08912 0.924287 0.708808C1.57484 0.0746114 1.74212 0 2.59713 0C3.8053 0 4.12128 0.167876 5.44097 1.45492L6.51903 2.49948L7.39262 1.64145C8.34057 0.708808 9.34428 0.186529 10.1807 0.186529C11.4075 0.186529 12.0952 0.578238 14.084 2.40622C15.1807 3.41347 16.2773 4.32746 16.5003 4.43938C17.0951 4.75648 18.8981 4.71917 19.5858 4.36477C19.9204 4.19689 20.9055 3.35751 21.7791 2.49948C24.6044 -0.242487 26.24 -0.503627 28.359 1.51088C28.898 2.01451 29.3998 2.42487 29.5114 2.42487C29.6043 2.42487 29.976 2.12643 30.3292 1.75337C31.556 0.447668 32.318 0 33.3403 0C34.437 0 35.3849 0.503627 35.6637 1.26839C36.2957 2.90984 36.0912 3.63731 34.5857 5.12953C33.9723 5.74508 33.4704 6.32332 33.4704 6.43523C33.4704 6.54715 33.8236 6.97617 34.2325 7.36788C35.1061 8.20725 35.6823 9.34508 35.7009 10.1658C35.7009 11.4715 35.3292 12.143 33.5634 13.971C31.24 16.3959 30.8311 17.2539 31.2586 18.9513C31.4444 19.6788 31.8162 20.2197 33.266 21.8238C35.2734 24.0249 35.515 24.4352 35.515 25.7596C35.515 26.8974 35.1619 27.6249 34.1024 28.7254L33.2846 29.5834L34.4927 30.7772C35.3106 31.5979 35.7752 32.2135 35.9054 32.6798C36.3514 34.3772 35.1247 36 33.3775 36C32.4667 36 32.095 35.7762 30.7381 34.4518L29.5671 33.314L28.6006 34.2653C26.3144 36.5223 24.753 36.3544 21.8163 33.5192C19.8832 31.6539 19.2141 31.2622 17.9501 31.2622C16.6862 31.2622 16.0542 31.6352 14.0468 33.5938C13.1175 34.5078 12.0394 35.3658 11.6677 35.5337C10.2179 36.1492 8.82384 35.7575 7.41121 34.3586L6.51903 33.5005L5.73837 34.2653C4.45585 35.4964 3.58225 36 2.72724 36C0.868525 36 -0.562688 33.9482 0.217974 32.4C0.329497 32.1762 0.924287 31.4674 1.53766 30.8518L2.65289 29.6953L1.6306 28.5762C0.682653 27.5503 0.199387 26.5803 0.199387 25.7409C0.199387 24.7523 0.701241 23.9316 2.52278 21.9171C4.58596 19.6415 4.99488 18.858 4.75325 17.5523C4.54879 16.4705 4.13987 15.8736 2.3555 14.0083C0.701241 12.2736 0.199387 11.3969 0.199387 10.3337C0.199387 9.41969 0.664066 8.5057 1.6306 7.46114L2.67148 6.32332L1.44473 5.05492ZM27.5597 14.6425C26.3515 11.3782 23.4334 8.80414 20.1063 8.09534C12.9688 6.58446 6.48185 13.3368 8.3034 20.3876C9.64167 25.5917 14.8461 28.9679 19.9018 27.9047C23.4519 27.1586 26.3144 24.6964 27.5597 21.3575C28.1545 19.7347 28.1545 16.2466 27.5597 14.6425Z" fill="#1F2937"/>
</svg>
